<mxfile host="app.diagrams.net" agent="Mozilla/5.0 (Windows NT 10.0; Win64; x64) AppleWebKit/537.36 (KHTML, like Gecko) Chrome/133.0.0.0 Safari/537.36 Edg/133.0.0.0" version="26.0.15">
  <diagram name="Page-1" id="y_mQLNcJty1xBtGMBA1a">
    <mxGraphModel dx="1050" dy="611" grid="0" gridSize="10" guides="1" tooltips="1" connect="1" arrows="1" fold="1" page="0" pageScale="1" pageWidth="850" pageHeight="1100" math="0" shadow="0">
      <root>
        <mxCell id="0" />
        <mxCell id="1" parent="0" />
        <mxCell id="t6yCuCEMrF7jg9e06z7A-1" value="Intrusion Detection Systems" style="ellipse;whiteSpace=wrap;html=1;" vertex="1" parent="1">
          <mxGeometry x="330" y="20" width="180" height="60" as="geometry" />
        </mxCell>
        <mxCell id="t6yCuCEMrF7jg9e06z7A-8" value="" style="endArrow=classic;html=1;rounded=0;exitX=0.5;exitY=1;exitDx=0;exitDy=0;" edge="1" parent="1" source="t6yCuCEMrF7jg9e06z7A-1">
          <mxGeometry width="50" height="50" relative="1" as="geometry">
            <mxPoint x="400" y="320" as="sourcePoint" />
            <mxPoint x="418" y="113" as="targetPoint" />
          </mxGeometry>
        </mxCell>
        <mxCell id="t6yCuCEMrF7jg9e06z7A-34" value="Intrusion Detection Systems" style="ellipse;whiteSpace=wrap;html=1;" vertex="1" parent="1">
          <mxGeometry x="335" y="600" width="180" height="60" as="geometry" />
        </mxCell>
        <mxCell id="t6yCuCEMrF7jg9e06z7A-38" value="" style="endArrow=classic;html=1;rounded=0;exitX=0.5;exitY=1;exitDx=0;exitDy=0;" edge="1" parent="1" source="t6yCuCEMrF7jg9e06z7A-34">
          <mxGeometry width="50" height="50" relative="1" as="geometry">
            <mxPoint x="405" y="900" as="sourcePoint" />
            <mxPoint x="423" y="693" as="targetPoint" />
          </mxGeometry>
        </mxCell>
        <mxCell id="t6yCuCEMrF7jg9e06z7A-51" value="" style="group" vertex="1" connectable="0" parent="1">
          <mxGeometry x="328" y="161" width="680" height="290" as="geometry" />
        </mxCell>
        <mxCell id="t6yCuCEMrF7jg9e06z7A-4" value="Host Based Intrusion Detection Systems" style="ellipse;whiteSpace=wrap;html=1;" vertex="1" parent="t6yCuCEMrF7jg9e06z7A-51">
          <mxGeometry x="247.5" width="185" height="70" as="geometry" />
        </mxCell>
        <mxCell id="t6yCuCEMrF7jg9e06z7A-5" value="" style="endArrow=none;html=1;rounded=0;" edge="1" parent="t6yCuCEMrF7jg9e06z7A-51">
          <mxGeometry width="50" height="50" relative="1" as="geometry">
            <mxPoint x="50" y="150" as="sourcePoint" />
            <mxPoint x="630" y="150" as="targetPoint" />
          </mxGeometry>
        </mxCell>
        <mxCell id="t6yCuCEMrF7jg9e06z7A-6" value="" style="endArrow=none;html=1;rounded=0;entryX=0.5;entryY=1;entryDx=0;entryDy=0;" edge="1" parent="t6yCuCEMrF7jg9e06z7A-51" target="t6yCuCEMrF7jg9e06z7A-4">
          <mxGeometry width="50" height="50" relative="1" as="geometry">
            <mxPoint x="340" y="150" as="sourcePoint" />
            <mxPoint x="350" y="-50" as="targetPoint" />
          </mxGeometry>
        </mxCell>
        <mxCell id="t6yCuCEMrF7jg9e06z7A-10" value="ADFA-LD" style="ellipse;whiteSpace=wrap;html=1;" vertex="1" parent="t6yCuCEMrF7jg9e06z7A-51">
          <mxGeometry y="210" width="100" height="80" as="geometry" />
        </mxCell>
        <mxCell id="t6yCuCEMrF7jg9e06z7A-11" value="ADFA-WD" style="ellipse;whiteSpace=wrap;html=1;" vertex="1" parent="t6yCuCEMrF7jg9e06z7A-51">
          <mxGeometry x="290" y="210" width="100" height="80" as="geometry" />
        </mxCell>
        <mxCell id="t6yCuCEMrF7jg9e06z7A-12" value="ADFA:SAA" style="ellipse;whiteSpace=wrap;html=1;" vertex="1" parent="t6yCuCEMrF7jg9e06z7A-51">
          <mxGeometry x="580" y="210" width="100" height="80" as="geometry" />
        </mxCell>
        <mxCell id="t6yCuCEMrF7jg9e06z7A-15" value="" style="endArrow=classic;html=1;rounded=0;entryX=0.5;entryY=0;entryDx=0;entryDy=0;" edge="1" parent="t6yCuCEMrF7jg9e06z7A-51" target="t6yCuCEMrF7jg9e06z7A-10">
          <mxGeometry width="50" height="50" relative="1" as="geometry">
            <mxPoint x="50" y="150" as="sourcePoint" />
            <mxPoint x="230" y="170" as="targetPoint" />
          </mxGeometry>
        </mxCell>
        <mxCell id="t6yCuCEMrF7jg9e06z7A-16" value="" style="endArrow=classic;html=1;rounded=0;entryX=0.5;entryY=0;entryDx=0;entryDy=0;" edge="1" parent="t6yCuCEMrF7jg9e06z7A-51" target="t6yCuCEMrF7jg9e06z7A-12">
          <mxGeometry width="50" height="50" relative="1" as="geometry">
            <mxPoint x="630" y="150" as="sourcePoint" />
            <mxPoint x="370" y="130" as="targetPoint" />
          </mxGeometry>
        </mxCell>
        <mxCell id="t6yCuCEMrF7jg9e06z7A-17" value="" style="endArrow=classic;html=1;rounded=0;entryX=0.5;entryY=0;entryDx=0;entryDy=0;" edge="1" parent="t6yCuCEMrF7jg9e06z7A-51" target="t6yCuCEMrF7jg9e06z7A-11">
          <mxGeometry width="50" height="50" relative="1" as="geometry">
            <mxPoint x="340" y="150" as="sourcePoint" />
            <mxPoint x="370" y="130" as="targetPoint" />
          </mxGeometry>
        </mxCell>
        <mxCell id="t6yCuCEMrF7jg9e06z7A-52" value="" style="endArrow=none;html=1;rounded=0;" edge="1" parent="1">
          <mxGeometry width="50" height="50" relative="1" as="geometry">
            <mxPoint x="164" y="114" as="sourcePoint" />
            <mxPoint x="670" y="114" as="targetPoint" />
          </mxGeometry>
        </mxCell>
        <mxCell id="t6yCuCEMrF7jg9e06z7A-53" value="&amp;nbsp;Network Based Intrusion Detection Systems" style="ellipse;whiteSpace=wrap;html=1;" vertex="1" parent="1">
          <mxGeometry x="75" y="157" width="180" height="60" as="geometry" />
        </mxCell>
        <mxCell id="t6yCuCEMrF7jg9e06z7A-54" value="" style="endArrow=classic;html=1;rounded=0;entryX=0.5;entryY=0;entryDx=0;entryDy=0;" edge="1" parent="1" target="t6yCuCEMrF7jg9e06z7A-4">
          <mxGeometry width="50" height="50" relative="1" as="geometry">
            <mxPoint x="670" y="113" as="sourcePoint" />
            <mxPoint x="539" y="206" as="targetPoint" />
          </mxGeometry>
        </mxCell>
        <mxCell id="t6yCuCEMrF7jg9e06z7A-55" value="" style="endArrow=classic;html=1;rounded=0;entryX=0.5;entryY=0;entryDx=0;entryDy=0;" edge="1" parent="1" target="t6yCuCEMrF7jg9e06z7A-53">
          <mxGeometry width="50" height="50" relative="1" as="geometry">
            <mxPoint x="164" y="115" as="sourcePoint" />
            <mxPoint x="539" y="206" as="targetPoint" />
          </mxGeometry>
        </mxCell>
        <mxCell id="t6yCuCEMrF7jg9e06z7A-57" value="" style="endArrow=none;html=1;rounded=0;" edge="1" parent="1">
          <mxGeometry width="50" height="50" relative="1" as="geometry">
            <mxPoint x="176" y="692" as="sourcePoint" />
            <mxPoint x="682" y="692" as="targetPoint" />
            <Array as="points" />
          </mxGeometry>
        </mxCell>
        <mxCell id="t6yCuCEMrF7jg9e06z7A-58" value="" style="endArrow=classic;html=1;rounded=0;entryX=0.5;entryY=0;entryDx=0;entryDy=0;" edge="1" parent="1">
          <mxGeometry width="50" height="50" relative="1" as="geometry">
            <mxPoint x="176" y="692" as="sourcePoint" />
            <mxPoint x="177" y="734" as="targetPoint" />
          </mxGeometry>
        </mxCell>
        <mxCell id="t6yCuCEMrF7jg9e06z7A-59" value="" style="endArrow=classic;html=1;rounded=0;entryX=0.5;entryY=0;entryDx=0;entryDy=0;" edge="1" parent="1">
          <mxGeometry width="50" height="50" relative="1" as="geometry">
            <mxPoint x="682" y="693" as="sourcePoint" />
            <mxPoint x="680" y="741" as="targetPoint" />
          </mxGeometry>
        </mxCell>
        <mxCell id="t6yCuCEMrF7jg9e06z7A-60" value="&amp;nbsp;Network Based Intrusion Detection Systems" style="ellipse;whiteSpace=wrap;html=1;" vertex="1" parent="1">
          <mxGeometry x="79" y="733" width="180" height="60" as="geometry" />
        </mxCell>
        <mxCell id="t6yCuCEMrF7jg9e06z7A-50" value="" style="whiteSpace=wrap;html=1;aspect=fixed;fillColor=#f8cecc;strokeColor=#b85450;" vertex="1" parent="1">
          <mxGeometry x="898.5" y="910" width="145" height="145" as="geometry" />
        </mxCell>
        <mxCell id="t6yCuCEMrF7jg9e06z7A-49" value="" style="whiteSpace=wrap;html=1;aspect=fixed;fillColor=#dae8fc;strokeColor=#6c8ebf;" vertex="1" parent="1">
          <mxGeometry x="614" y="910" width="145" height="145" as="geometry" />
        </mxCell>
        <mxCell id="t6yCuCEMrF7jg9e06z7A-45" value="" style="whiteSpace=wrap;html=1;aspect=fixed;fillColor=#d5e8d4;strokeColor=#82b366;" vertex="1" parent="1">
          <mxGeometry x="311" y="910" width="145" height="145" as="geometry" />
        </mxCell>
        <mxCell id="t6yCuCEMrF7jg9e06z7A-35" value="Host Based Intrusion Detection Systems" style="ellipse;whiteSpace=wrap;html=1;" vertex="1" parent="1">
          <mxGeometry x="593.5" y="740" width="185" height="70" as="geometry" />
        </mxCell>
        <mxCell id="t6yCuCEMrF7jg9e06z7A-36" value="" style="endArrow=none;html=1;rounded=0;" edge="1" parent="1">
          <mxGeometry width="50" height="50" relative="1" as="geometry">
            <mxPoint x="396" y="890" as="sourcePoint" />
            <mxPoint x="976" y="890" as="targetPoint" />
          </mxGeometry>
        </mxCell>
        <mxCell id="t6yCuCEMrF7jg9e06z7A-37" value="" style="endArrow=none;html=1;rounded=0;entryX=0.5;entryY=1;entryDx=0;entryDy=0;" edge="1" parent="1" target="t6yCuCEMrF7jg9e06z7A-35">
          <mxGeometry width="50" height="50" relative="1" as="geometry">
            <mxPoint x="686" y="890" as="sourcePoint" />
            <mxPoint x="696" y="690" as="targetPoint" />
          </mxGeometry>
        </mxCell>
        <mxCell id="t6yCuCEMrF7jg9e06z7A-39" value="ADFA-LD" style="ellipse;whiteSpace=wrap;html=1;" vertex="1" parent="1">
          <mxGeometry x="346" y="950" width="100" height="80" as="geometry" />
        </mxCell>
        <mxCell id="t6yCuCEMrF7jg9e06z7A-40" value="ADFA-WD" style="ellipse;whiteSpace=wrap;html=1;" vertex="1" parent="1">
          <mxGeometry x="636" y="950" width="100" height="80" as="geometry" />
        </mxCell>
        <mxCell id="t6yCuCEMrF7jg9e06z7A-41" value="ADFA:SAA" style="ellipse;whiteSpace=wrap;html=1;" vertex="1" parent="1">
          <mxGeometry x="926" y="950" width="100" height="80" as="geometry" />
        </mxCell>
        <mxCell id="t6yCuCEMrF7jg9e06z7A-42" value="" style="endArrow=classic;html=1;rounded=0;entryX=0.5;entryY=0;entryDx=0;entryDy=0;" edge="1" parent="1" target="t6yCuCEMrF7jg9e06z7A-39">
          <mxGeometry width="50" height="50" relative="1" as="geometry">
            <mxPoint x="396" y="890" as="sourcePoint" />
            <mxPoint x="576" y="910" as="targetPoint" />
          </mxGeometry>
        </mxCell>
        <mxCell id="t6yCuCEMrF7jg9e06z7A-43" value="" style="endArrow=classic;html=1;rounded=0;entryX=0.5;entryY=0;entryDx=0;entryDy=0;" edge="1" parent="1" target="t6yCuCEMrF7jg9e06z7A-41">
          <mxGeometry width="50" height="50" relative="1" as="geometry">
            <mxPoint x="976" y="890" as="sourcePoint" />
            <mxPoint x="716" y="870" as="targetPoint" />
          </mxGeometry>
        </mxCell>
        <mxCell id="t6yCuCEMrF7jg9e06z7A-44" value="" style="endArrow=classic;html=1;rounded=0;entryX=0.5;entryY=0;entryDx=0;entryDy=0;" edge="1" parent="1" target="t6yCuCEMrF7jg9e06z7A-40">
          <mxGeometry width="50" height="50" relative="1" as="geometry">
            <mxPoint x="686" y="890" as="sourcePoint" />
            <mxPoint x="716" y="870" as="targetPoint" />
          </mxGeometry>
        </mxCell>
        <mxCell id="t6yCuCEMrF7jg9e06z7A-46" value="SHIKHAR" style="text;html=1;align=center;verticalAlign=middle;whiteSpace=wrap;rounded=0;" vertex="1" parent="1">
          <mxGeometry x="621" y="920" width="60" height="30" as="geometry" />
        </mxCell>
        <mxCell id="t6yCuCEMrF7jg9e06z7A-47" value="ARYAN" style="text;html=1;align=center;verticalAlign=middle;whiteSpace=wrap;rounded=0;" vertex="1" parent="1">
          <mxGeometry x="321" y="920" width="60" height="30" as="geometry" />
        </mxCell>
        <mxCell id="t6yCuCEMrF7jg9e06z7A-48" value="NITESH" style="text;html=1;align=center;verticalAlign=middle;whiteSpace=wrap;rounded=0;" vertex="1" parent="1">
          <mxGeometry x="911" y="930" width="60" height="30" as="geometry" />
        </mxCell>
      </root>
    </mxGraphModel>
  </diagram>
</mxfile>
